# xmcd
#
# Track frame offsets: 
#        150
#        14809
#        33328
#        47049
#        63926
#        81316
#        98959
#        115573
#        133634
#        149281
#        165900
#        182636
#
# Disc length: 2648 seconds
#
# Revision: 0
# Processed by: cddbd v1.5.2PL0 Copyright (c) Steve Scherf et al.
# Submitted via: ExactAudioCopy v1.0b2
#
DISCID=9b0a560c
DTITLE=Bronk Brothers - Here For The Good Times
DYEAR=2009
DGENRE=Country
TTITLE0=Here For The Good Times
TTITLE1=Once A Cowboy
TTITLE2=Tan Lines
TTITLE3=Famous In This House
TTITLE4=In The Eye Of The Beerholder
TTITLE5=Taking My Time Away
TTITLE6=Barlight
TTITLE7=Back In Your Arms
TTITLE8=Under The Weather
TTITLE9=Never Met A Honky Tonk
TTITLE10=Mean The World To Me
TTITLE11=More For Your Money
EXTD=
EXTT0=
EXTT1=
EXTT2=
EXTT3=
EXTT4=
EXTT5=
EXTT6=
EXTT7=
EXTT8=
EXTT9=
EXTT10=
EXTT11=
PLAYORDER=
